<svg width="54" height="78" fill="none" xmlns="http://www.w3.org/2000/svg"><path d="M52.9 38.7a6 6 0 1 1-12.1 0 6 6 0 0 1 12 0Z" fill="#89CEEA"/><path d="M46.8 32.7a6 6 0 0 0-2.3.4 6 6 0 0 1 0 11.2 6 6 0 0 0 8.4-5.6 6 6 0 0 0-6-6Z" fill="#78C0DE"/><path d="M37.4 60v16.3H1.1V60.1a12 12 0 0 1 12-12h12.3a12 12 0 0 1 12 12Z" fill="#E8E1D5"/><path d="M28.5 48.4a11.7 11.7 0 0 0-3-.4h-4.6a12 12 0 0 1 12 12v16.3h4.5V60.1a12 12 0 0 0-9-11.7Z" fill="#D6CFC4"/><path d="m28.5 48.4-9.2 28-9.2-28a11.8 11.8 0 0 1 3-.4h12.3a12 12 0 0 1 3 .4Z" fill="#FF573D"/><path d="M26.1 48c.6 0 1 .5.8 1-.6 2.7-3.8 4.7-7.6 4.7s-7-2-7.7-4.6c-.1-.6.3-1 .8-1h2.4v-9h9v9H26Z" fill="#EBA28C"/><path d="M19.3 76.3 14.8 47c0-.3-.4-.5-.7-.5l-6.3 1c-.3 0-.5.2-.5.5l-.6 8.2 2.7 1.6-.8 3.8 10.7 14.7ZM19.3 76.3 23.8 47c0-.3.4-.5.7-.5l6.3 1c.3 0 .5.2.5.5l.6 8.2-2.7 1.6.7 3.8-10.6 14.7Z" fill="#C4BEB4"/><path d="M8.2 24.4c0 2.2-1.6 4-3.6 4s-3.3-2-3.3-4.3c0-2.7 1.3-3.8 3.3-3.8 2 0 3.6 1.8 3.6 4ZM30.3 24.4c0 2.2 1.7 4 3.7 4s3.3-2 3.3-4.3c0-2.7-1.3-3.8-3.3-3.8-2 0-3.7 1.8-3.7 4Z" fill="#EBA28C"/><path d="M6 29.6v-9.8c0-7 5.6-12.6 12.5-12.6H20c7 0 12.6 5.6 12.6 12.6v9.8a13.3 13.3 0 1 1-26.6 0Z" fill="#FCC19C"/><path d="M20 7.2h-1.5l-1.5.1c6.2.7 11 6 11 12.5v9.8c0 6.6-4.7 12-11 13.1l2.3.2c7.3 0 13.3-6 13.3-13.3v-9.8c0-7-5.6-12.6-12.6-12.6Z" fill="#EBA28C"/><path d="M6 24.2c0 .1 0 .2.2.2.6-.1 2.5-.7 2.6-2.2.3-1.8 3.7-7 9.1-7.5 4-.3 6-2.4 6.7-3.5.1-.2.5-.2.5.1.3 1.4 1.1 4.3 3 6 2.4 2.1 1.7 7 4.3 7.1l.2-.1v-3.8c0-.4.3-.7.7-.7.4 0 .7-.3.8-.6.3-1.4 1-5 0-8a9.8 9.8 0 0 0-5-5.1s-1.3-5-9-5S9.4 4.4 9.4 4.4s-5.9 5-5.4 9.4l.5 5.8c0 .4.4.7.7.7.4 0 .8.3.8.7v3.2Z" fill="#633327"/><path d="M34 11.2c-1.3-3.6-5-5.1-5-5.1s-1.2-5-9-5c-.8 0-1.7 0-2.4.2 5.9.7 7 4.8 7 4.8s3.6 1.5 5 5.1a15.4 15.4 0 0 1-.1 8.2c.8 2.3 1 4.9 3 5l.1-.1v-3.8c0-.4.3-.7.7-.7.4 0 .7-.3.8-.6.3-1.4 1-5 0-8ZM13.4 14.7c-4 .4-7 3.3-8.3 5.6h.1c.4 0 .8.3.8.7v3.2c0 .1 0 .2.2.2.6-.1 2.5-.7 2.6-2.2.3-1.8 3.7-7 9.1-7.5 1.4 0 2.5-.4 3.4-.8l-8 .8Z" fill="#572D22"/><path d="M17 26.2a3.8 3.8 0 1 1-7.5 0 3.8 3.8 0 0 1 7.6 0ZM29 26.2a3.8 3.8 0 1 1-7.5 0 3.8 3.8 0 0 1 7.5 0Z" fill="#CEE8F2"/><path d="M54 38.7a7.2 7.2 0 1 0-8.3 7.1v1.5c0 4.5-3.3 8.3-7.6 9.2-.9-3.1-2.9-5.8-5.6-7.5v-1c-.1-.9-.8-1.6-1.6-1.7l-2-.3c4-2 6.7-6.1 6.7-10.9v-5.9c1.7-.7 2.8-2.7 2.8-5.1 0-2.7-1.1-4.4-3.2-4.8.4-1.7 1-5.4 0-8.5-1.3-3.2-4.1-5-5.2-5.6C29.3 3.8 27 0 20 0 12.5 0 9 3 8.7 3.6 8 4 2.3 9 2.9 13.9l.5 5.4C1.4 19.7.2 21.4.2 24c0 2.4 1.1 4.4 2.8 5.2V35c0 4.7 2.7 8.9 6.7 11l-2 .2c-.9.1-1.5.8-1.6 1.6v1C2.3 51.5 0 55.7 0 60.2v7.7a1.1 1.1 0 0 0 2.3 0V60c0-3.2 1.3-6.1 3.6-8.1L5.6 56c0 .4.2.9.5 1l2 1.3-.6 3c0 .3 0 .7.2 1l9.4 12.8H2.3v-2.6a1.1 1.1 0 0 0-2.3 0v3.7c0 .6.5 1.1 1.1 1.1h36.3c.7 0 1.2-.5 1.2-1V60l-.1-1.4c5.4-1 9.4-5.8 9.4-11.4v-1.5c3.5-.5 6.1-3.5 6.1-7Zm-18.2 18h-2.9V56l-.2-4.1a11 11 0 0 1 3 4.6Zm-5.1-1.1-1.7 1c-2-.2-3.8-1-5.2-2.2l1-6.7 5.4.8.5 7ZM19.3 44c1.2 0 2.3-.1 3.3-.4v1.6H16v-1.6c1.1.3 2.2.4 3.4.4ZM16 47.4h2.2c0 1.9.5 3.6 1.3 5.2h-.2c-.9 0-1.8-.2-2.6-.4l-.7-4.8Zm5.8 4.8c-.8-1.4-1.3-3-1.4-4.8h2.2l-.8 4.8Zm-2.5 2.6h1.6l.5.5-2.1 13.2L17 54.6c.7.2 1.4.2 2.2.2Zm5.6-9.8V43c4.1-1.7 7.3-5.4 8.4-9.8v2c0 5-3.6 9.1-8.4 10Zm11.3-21c0 1.7-.9 3.3-2.2 3.3h-.3v-5.9h.3c1 0 2.2.3 2.2 2.7ZM10 5.3c.1 0 2.9-3 10-3 6.6 0 7.8 4 7.8 4.2.1.3.4.6.7.7 0 0 3.3 1.4 4.4 4.5.9 2.5.3 5.7 0 7-.8.2-1.5 1-1.5 1.9v1.4l-.4-1a9 9 0 0 0-2.3-4.5 10.9 10.9 0 0 1-2.6-5.3 1.4 1.4 0 0 0-2.6-.5c-.7 1-2.3 2.7-5.8 3h-.1a1.1 1.1 0 1 0 .2 2.3h.1c3.2-.3 5.2-1.6 6.4-2.8.5 1.7 1.4 3.7 2.9 5 .9.8 1.2 2.1 1.6 3.4.5 1.5 1 3.3 2.6 3.9v4.2a12.2 12.2 0 1 1-24.4 0v-4.3l1.6-.8a5 5 0 1 0 9.4 2.8h2.4a5 5 0 1 0 0-2.2H18a5 5 0 0 0-8.2-2.5v-.3c.2-.8 1.6-3.3 4-5a1.1 1.1 0 0 0-1.2-1.8c-2.8 1.9-4.8 4.9-5 6.6 0 .3-.3.5-.6.7V21c0-.5-.2-1-.6-1.3v-.1h-.1l-.8-.4-.5-5.5c-.3-3.1 3.5-7.2 5-8.5Zm.6 21a2.7 2.7 0 1 1 5.3 0 2.7 2.7 0 0 1-5.3 0Zm12 0a2.7 2.7 0 1 1 5.2 0 2.7 2.7 0 0 1-5.3 0ZM4.5 21.4h.2v5.9h-.2c-1.4 0-2.2-1.6-2.2-3.2 0-2.4 1.1-2.7 2.2-2.7Zm.7 13.7v-1.8c1.2 4.3 4.3 7.9 8.4 9.6V45a10 10 0 0 1-8.4-9.9ZM10 56.8l-2-1.2.4-5.9v-1.2l5.4-.8L17.5 72 9.8 61.4l.7-3.4c0-.4-.1-1-.6-1.2Zm26.4 18.4H21.5l5-6.9a1.1 1.1 0 1 0-1.8-1.3L21 72l2.3-15c1.4 1 3 1.6 4.8 1.8l.5 2.6-1.2 1.7a1.1 1.1 0 0 0 1.8 1.3l1.6-2 .2-1-.5-2.5h5.6l.1 1.2v15Zm10.5-31.6a5 5 0 1 1 0-9.8 5 5 0 0 1 0 9.8Z" fill="#000"/></svg>