<svg width="72" height="78" fill="none" xmlns="http://www.w3.org/2000/svg"><path d="M30.9 25.7v-3.3a3.9 3.9 0 0 1 1.3-3l5.6-4.6a2.8 2.8 0 0 1 4.6 2.2v5a5.8 5.8 0 0 1-1.7 4.1l-2.1 2.2v5.5a3.5 3.5 0 0 1-2 3.2l-3.2 1.6H31V25.7ZM12.9 25.7v-3.3a3.9 3.9 0 0 0-1.4-3l-5.6-4.6A2.8 2.8 0 0 0 1.3 17v5A5.8 5.8 0 0 0 3 26.1L5 28.3v5.5a3.5 3.5 0 0 0 2 3.2l3.2 1.6h2.6V25.7Z" fill="#E08122"/><path d="M32.1 31.3a1.3 1.3 0 0 1-1-2l4.9-6.6v-2.1a1.3 1.3 0 0 1 2.6 0V23c0 .3-.1.6-.3.8l-5.1 6.9a1.3 1.3 0 0 1-1 .5ZM11.6 31.3a1.3 1.3 0 0 1-1-.5l-5.2-6.9c-.2-.2-.3-.5-.3-.8v-2.5a1.3 1.3 0 1 1 2.6 0v2.1l4.9 6.5a1.3 1.3 0 0 1-1 2Z" fill="#BF6E1D"/><path d="m33.4 69.8-1.3 1 .7.1 1.4.5A2.6 2.6 0 0 1 36 74v2H7.7v-2.3a2.6 2.6 0 0 1 1.4-2.3l1.2-.6-2.4-2.3c-1-1-1.5-2.3-1.5-3.7v-4.5a2.6 2.6 0 0 1 .8-1.8l3-3.1 2.7-6.4h18l2.5 6.4 3.1 3a2.6 2.6 0 0 1 .8 2v4a5.1 5.1 0 0 1-2 4.1l-2 1.4ZM30.9 48.9h-18l-2.6-6.5V30.3a4.8 4.8 0 0 1 4.2-4.8c5-.7 9.8-.7 14.6 0h.2c1 .1 2 .6 2.7 1.4 1 .9 1.4 2.1 1.4 3.4v12.1L31 49Z" fill="#FD9226"/><path d="M26.7 52.7a4.2 4.2 0 0 1-3.5-1.9l-1.3-2-1.4 2a4.2 4.2 0 0 1-7.6-2.3v-1.9a4.2 4.2 0 0 1 4.1-4.2h9.7a4.2 4.2 0 0 1 4.2 4.2v2a4.2 4.2 0 0 1-4.2 4.1Z" fill="#985713"/><path d="M14.1 72v3.9h-2.5v-3.6L10.4 70l-.1-.6V63a1.3 1.3 0 0 1 2.6 0v6.1l1.1 2.3.1.6ZM20.6 63v6.4c0 .2 0 .4-.2.6l-1.1 2.3v3.6h-2.6V72l.1-.6 1.2-2.3V63a1.3 1.3 0 1 1 2.6 0ZM33.4 63v6.4l-.1.6-.5 1-.7 1.3v3.6h-2.5V72l.1-.6 1.2-2.3V63a1.3 1.3 0 0 1 2.5 0ZM27 72v3.9h-2.6v-3.6L23.3 70l-.2-.6V63a1.3 1.3 0 1 1 2.6 0v6.1l1.2 2.3.1.6Z" fill="#E08122"/><path d="M21.9 47.6a2.6 2.6 0 1 0 0-5.2 2.6 2.6 0 0 0 0 5.2Z" fill="#70400E"/><path d="M16.7 37.8a1.8 1.8 0 1 0 0-3.6 1.8 1.8 0 0 0 0 3.6ZM27.5 37.8a1.8 1.8 0 1 0 0-3.6 1.8 1.8 0 0 0 0 3.6Z" fill="#985713"/><path d="M52.7 47.6V72a5.1 5.1 0 0 1-10.3 0v-5.5a1 1 0 0 0-1-1h-9.3a1.3 1.3 0 0 1 0-2.5h9.4a3.5 3.5 0 0 1 3.5 3.5V72a2.6 2.6 0 1 0 5.1 0V47.6a1.3 1.3 0 1 1 2.6 0Z" fill="#DBDBDB"/><path d="M51.4 25.7a5.1 5.1 0 0 1-3.8-1.7 1.3 1.3 0 0 1 2-1.7 2.6 2.6 0 1 0 1.8-4.3 1.3 1.3 0 0 1-1.3-1.3V5.1a1.3 1.3 0 0 1 2.6 0v10.5a5.1 5.1 0 0 1-1.3 10.1Z" fill="#878787"/><path d="M66.9 6.4H50a2.6 2.6 0 1 1 0-5.1H67v5.1Z" fill="#CBCBCB"/><path d="M61.7 6.4H67v64.3h-5.2V6.4Z" fill="#985713"/><path d="M70.7 75.9H58a7.2 7.2 0 0 1 3.2-6l.6-.5H67l.6.5a7.2 7.2 0 0 1 3.2 6Z" fill="#70400E"/><path d="M45 51.4h2.6V54H45v-2.6ZM45 56.6h2.6v5.1H45v-5.1Z" fill="#C0F5F9"/><path d="M23.1 61.7h10.3V67H23.1v-5.2Z" fill="#6B9777"/><path d="M51.4 30.9a1.3 1.3 0 0 1-1.3-1.3v-5.2a1.3 1.3 0 1 1 2.6 0v5.2a1.3 1.3 0 0 1-1.3 1.3Z" fill="#CBCBCB"/><path d="M52.7 47.6v1c-.8.3-1.7.3-2.6 0v-1a1.3 1.3 0 1 1 2.6 0Z" fill="#C3C3C3"/><path d="M61.7 6.4H67V9h-5.2V6.4Z" fill="#70400E"/><path d="M33.4 63h1.3v2.6h-1.3V63Z" fill="#C3C3C3"/><path d="M46.3 29.6h10.3v12.8a5.1 5.1 0 1 1-10.3 0V29.6Z" fill="#EBEBEB"/><path d="M51.4 47.6a5.1 5.1 0 0 1-5.1-5.2v-7.7h10.3v7.7a5.1 5.1 0 0 1-5.2 5.2Z" fill="#C0F5F9"/><path d="M54 39.9h-1.3v-1.3h-2.6v1.3H49v2.5H50v1.3h2.6v-1.3H54V40Z" fill="#85BC94"/><path d="M46.3 34.7h10.3V36H46.3v-1.3Z" fill="#B8EAEE"/><path d="M16.7 37.8a1.8 1.8 0 1 0 0-3.6 1.8 1.8 0 0 0 0 3.6ZM27.5 37.8a1.8 1.8 0 1 0 0-3.6 1.8 1.8 0 0 0 0 3.6Z" fill="#000"/><path d="M3.9 28.8v5a4.8 4.8 0 0 0 2.6 4.3L9 39.4v3.5l2.5 6-2.3 5.7-3 2.9a3.8 3.8 0 0 0-1 2.7v4.5A6.4 6.4 0 0 0 7 69.3l1.1 1a3.8 3.8 0 0 0-1.7 3.3v2.3A1.3 1.3 0 0 0 7.7 77H36a1.3 1.3 0 0 0 1.3-1.2v-2a3.9 3.9 0 0 0-2.4-3.6l1.1-.9c1.3-1 2.1-2.3 2.4-3.8h3a1 1 0 0 1 1 1V72a5.1 5.1 0 0 0 10.3 0V48.7a6.4 6.4 0 0 0 5.2-6.3V29.6a1.3 1.3 0 0 0-1.3-1.3h-3.9v-2.7a5.1 5.1 0 0 0 0-10V7.7h7.7v61a8.5 8.5 0 0 0-3.8 7.2 1.3 1.3 0 0 0 1.3 1.2h12.8A1.3 1.3 0 0 0 72 76a8.5 8.5 0 0 0-3.8-7.1V1.2A1.3 1.3 0 0 0 66.8 0H50a3.9 3.9 0 1 0 0 7.7v9a1.3 1.3 0 0 0 1.3 1.3 2.6 2.6 0 1 1-1.9 4.3 1.3 1.3 0 1 0-1.9 1.7c.7.8 1.6 1.3 2.5 1.5v2.8h-3.8a1.3 1.3 0 0 0-1.3 1.3v12.8a6.4 6.4 0 0 0 5.1 6.3V72a2.6 2.6 0 0 1-5.1 0v-5.5a3.5 3.5 0 0 0-3.5-3.5h-3v-2.8a3.8 3.8 0 0 0-1-2.7l-3-3-2.3-5.6 2.4-6 .1-.5v-3l2.5-1.3a4.8 4.8 0 0 0 2.7-4.3v-5l1.7-1.8a7 7 0 0 0 2.1-5v-5a4.1 4.1 0 0 0-6.7-3.2l-5.6 4.6a5.1 5.1 0 0 0-1.8 4v1.8H29.3c-5-.7-10-.7-15 0H14v-1.8a5.1 5.1 0 0 0-1.8-4l-5.5-4.6a4.1 4.1 0 0 0-6.5 1.6c-.2.5-.3 1-.3 1.6v5a7 7 0 0 0 2 5L4 28.8ZM66.8 71a6 6 0 0 1 2.5 3.7h-10a6 6 0 0 1 2.5-3.7l.3-.2h4.4l.3.2ZM63 68.1V7.7h2.6v60.4H63Zm-12.9-63a1.3 1.3 0 1 1 0-2.5h15.5V5H50ZM47.6 31h7.7v2.5h-7.7V31Zm0 11.5V36h7.7v6.4a3.9 3.9 0 0 1-7.7 0Zm-36 32.2H9v-1a1.3 1.3 0 0 1 .7-1.2L11 72l.3-.3.4.7v2.3ZM30.9 69l-1.2 2.3-.1.6v2.6H27V72l-.1-.6-1.2-2.3v-1H31v1Zm0-3.5h-5.2V63H31v2.6Zm3.8 9h-2.6v-2.3l.1-.2 1.6.5a1.3 1.3 0 0 1 1 1.3v.7Zm-.2-7.2-1 .7v-2.5h2.3c-.3.7-.7 1.3-1.3 1.8Zm-2-11.2 3.1 3.1a1.3 1.3 0 0 1 .4 1V63h-2.6v-1.3a1.3 1.3 0 0 0-1.3-1.3h-7.7a1.3 1.3 0 0 0-1.3 1.3v7.7c0 .2 0 .4.2.6l1.1 2.3v2.3h-5.1v-2.3l1.1-2.3.2-.6V63a1.3 1.3 0 1 0-2.6 0v6.1l-1.1 2.3-.2.6v2.6h-2.6v-3.2l-1.2-2.3V63a1.3 1.3 0 0 0-2.6 0v5.9l-1.5-1.4a3.9 3.9 0 0 1-1-2.8v-4.5a1.3 1.3 0 0 1 .3-.9l3-3.1.4-.4 1.4-3.7a5.5 5.5 0 0 0 8.7-.5l.3-.4.2.4a5.5 5.5 0 0 0 8.7.5l1.4 3.7.3.4Zm-12-7.6-1 1.5a2.9 2.9 0 0 1-5.4-1.6v-1.9a3 3 0 0 1 3-2.9h1.1a3.9 3.9 0 0 0 2.3 4.9Zm0-3.6a1.3 1.3 0 1 1 2.6 0 1.3 1.3 0 0 1-2.5 0Zm5-1.3h1.2a3 3 0 0 1 2.9 3v1.8a2.9 2.9 0 0 1-5.3 1.6l-1-1.5a3.9 3.9 0 0 0 2.2-4.9ZM32 22.4a2.6 2.6 0 0 1 1-2l5.5-4.6a1.6 1.6 0 0 1 2 0 1.5 1.5 0 0 1 .5 1.2v5a4.5 4.5 0 0 1-1.3 3.2l-2.1 2.2c-.3.2-.4.5-.4.9v5.5a2.2 2.2 0 0 1-1.3 2l-1.3.7v-6.2l-.1-1.4 3.7-5c.2-.2.3-.5.3-.8v-2.5a1.3 1.3 0 1 0-2.6 0v2.1l-2.7 3.6-.4-.3-.8-.7v-3Zm-19.5 5.4c.6-.6 1.3-1 2-1h.2c4.7-.7 9.4-.7 14.1 0h.2c.7 0 1.4.4 2 1a3.5 3.5 0 0 1 1 2.5v11.9l-.7 1.7a5.5 5.5 0 0 0-4.7-2.8H17a5.5 5.5 0 0 0-4.7 2.8l-.7-1.7v-12a3.5 3.5 0 0 1 1-2.4ZM2.6 17A1.5 1.5 0 0 1 5 15.8l5.5 4.6a2.6 2.6 0 0 1 1 2v2.9a6.2 6.2 0 0 0-1.1 1l-2.8-3.6v-2.1a1.3 1.3 0 1 0-2.6 0V23c0 .3.1.6.3.8l3.8 5-.2 1.4v6.2l-1.3-.7a2.2 2.2 0 0 1-1.3-2v-5.5a1.3 1.3 0 0 0-.3-1l-2.2-2A4.5 4.5 0 0 1 2.6 22v-5Z" fill="#000"/><path d="M52.7 43.7v-1.3H54V40h-1.3v-1.3h-2.6v1.3H49v2.5H50v1.3h2.6ZM45 51.4h2.6V54H45v-2.6ZM45 56.6h2.6v5.1H45v-5.1Z" fill="#000"/></svg>