<svg width="76" height="76" fill="none" xmlns="http://www.w3.org/2000/svg"><path d="M74.7 60.8v13.9H21.5l-1.8-2.8a1.3 1.3 0 0 1 .3-1.7l2.8-1.9v-5l-4-10-1-2.7-1.5-2.8-2.2-4.4a25.6 25.6 0 0 1-2.7-11.5v-8.4L5 21.7a4.1 4.1 0 0 1-3-3.4L2 15.7l-.6-4.9H10l1.7-3.2a11.4 11.4 0 0 1 11-6.3l4.8.4A8.2 8.2 0 0 1 34 5.3l5.3 8 3.5 5.7c3.6 5.8 8.2 11 13.7 15.1l8.2 6.3a25.6 25.6 0 0 1 10 20.4Z" fill="#F3AF3E"/><path d="m24.9 10-1.1 7.2a8.8 8.8 0 0 0 8.7 10h1.7V10.5A3.3 3.3 0 0 0 30.9 7h-2.6a3.5 3.5 0 0 0-3.4 3ZM60.6 67.6a1.3 1.3 0 0 1-1.1.7H49a3.5 3.5 0 0 0-3.5 3.6v2.8H43v-2.8a6 6 0 0 1 6-6h7.8c-3.2-4-5-9-5-14a1.3 1.3 0 1 1 2.6 0c0 4.6 1.6 9 4.6 12.6l1.5 1.8a1.3 1.3 0 0 1 .1 1.3Z" fill="#C38325"/><path d="M68.3 33a19.7 19.7 0 0 1-2 8.8 20.3 20.3 0 1 1 2-8.9Z" fill="#C0F5F9"/><path d="M6.3 10.8V12a3.5 3.5 0 0 1-2.6 3.4l-1.8.4-.6-4.9h5ZM17.7 12.1a2.5 2.5 0 1 0 0-5 2.5 2.5 0 0 0 0 5Z" fill="#C38325"/><path d="M44.3 59.5h7.6v15.2h-7.6V59.5Z" fill="#428DC5"/><path d="M68.3 34.2a20 20 0 0 1-7.4 14.4 20.3 20.3 0 0 1-33-14.4h40.4Z" fill="#EEB58E"/><path d="M40.5 38H43v2.5h-2.5V38Z" fill="#F55648"/><path d="M40.5 44.3H43v2.5h-2.5v-2.5Z" fill="#B94137"/><path d="M51.9 44.3h2.5v2.5H52v-2.5ZM57 44.3h2.5v2.5H57v-2.5Z" fill="#F55648"/><path d="M54.4 40.5H57V43h-2.6v-2.5Z" fill="#B94137"/><path d="M30 69.2 28.2 71l2 3 .2.7h-2.8L26 72.4a2.5 2.5 0 0 1 .3-3.2l1.4-1.4v-6.5l-9-8-1-2.7-1.5-2.8.4.2 13.2 11.8a1.3 1.3 0 0 1 .5 1v7.5c0 .4-.2.7-.4 1ZM38 58.2v16.5h-2.6V58.6l-2.3-3.5a1.3 1.3 0 1 1 2.1-1.4l2.6 3.8.2.7Z" fill="#C38325"/><path d="m68.3 34.2-.1 1.2H28l-.1-1.2h40.4Z" fill="#BD9070"/><path d="M54.3 19A40.9 40.9 0 0 0 47 38.7v.7a2.4 2.4 0 0 0 4 2l.2-.2a2.4 2.4 0 0 0 .7-1.7v-5.4c0-3.3.4-6.6 1.2-9.9l1.3-5.2ZM66 23.3l-.3 1c-.8 3.2-1.3 6.5-1.3 9.8v5.4c0 .6-.2 1.3-.7 1.7v.1a2.4 2.4 0 0 1-4.2-2v-.6c.7-6 2.5-11.7 5.6-16.8l.8 1.4ZM39.1 19a40.9 40.9 0 0 0-7.4 19.7v.7a2.4 2.4 0 0 0 4 2l.2-.2a2.4 2.4 0 0 0 .7-1.7v-5.4c0-3.3.4-6.6 1.2-9.9l1.3-5.2Z" fill="#744630"/><path d="M69.6 33A21.5 21.5 0 1 0 43 53.7v5.7h10.2v-5.7A21.6 21.6 0 0 0 69.6 33ZM48.1 51.8a19 19 0 1 1 0-38 19 19 0 0 1 0 38Z" fill="#428DC5"/><path d="M44.3 59.5h7.6V62h-7.6v-2.5Z" fill="#3775A4"/><path d="M17.7 12.1a2.5 2.5 0 1 0 0-5 2.5 2.5 0 0 0 0 5ZM40.5 38H43v2.5h-2.5V38ZM40.5 44.3H43v2.5h-2.5v-2.5ZM51.9 44.3h2.5v2.5H52v-2.5ZM57 44.3h2.5v2.5H57v-2.5ZM54.4 40.5H57V43h-2.6v-2.5Z" fill="#000"/><path d="M1 18.4A5.4 5.4 0 0 0 4.7 23l5.3 1.6v7.4c0 4.2 1 8.3 2.9 12l3.6 7.2 5 12.4v4.2L19.2 69a2.5 2.5 0 0 0-.7 3.5l1.9 2.8a1.3 1.3 0 0 0 1 .5h53.2a1.3 1.3 0 0 0 1.2-1.2v-14a26.9 26.9 0 0 0-8-19.2 21.4 21.4 0 0 0-.7-18.4l1-3.8a1.3 1.3 0 0 0-2.3-1l-.9 1.3a21.5 21.5 0 0 0-24.6-6.8l-.1-.1-5.4-8A9.4 9.4 0 0 0 27.7.3L23 0a12.6 12.6 0 0 0-12.3 7L9.3 9.6h-8A1.3 1.3 0 0 0 0 11l1 7.4Zm26.8 49.4-1.4 1.4a2.5 2.5 0 0 0-.3 3.2l.6 1h-4.5l-1.5-2.2 2.8-1.8a1.3 1.3 0 0 0 .5-1v-5.6l-3.1-7.7 7 6.2v6.5Zm22.8 5.6h-5V60.8h5v12.6ZM52 58.2h-7.6v-4.1c2.5.4 5 .4 7.6 0v4.1Zm14.4-30.7c.5 1.7.8 3.6.8 5.4h-1.4c0-1.8.3-3.6.6-5.4Zm-.6 12v-4H67c-.2 1.5-.6 3.1-1.2 4.6v-.6Zm.9 4.4a24.3 24.3 0 0 1 6.8 16.9v12.6H53.2v-5h6.3a1.3 1.3 0 0 0 1-2.1L59 64.5c-2.6-3.1-4.2-7-4.5-11 5-1.6 9.4-5 12-9.6Zm-13.4 22v-5.1c.1 0 .3 0 .5-.2.8 1.9 1.8 3.6 3 5.2h-3.5ZM64.6 42l.2-.2a19 19 0 0 1-33.1.5 3.7 3.7 0 0 0 5-.2 3.7 3.7 0 0 0 1.2-2.7v-4H46l-.5 3v.7a3.7 3.7 0 0 0 6.3 3 3.7 3.7 0 0 0 1.2-2.7v-4h5.6l-.4 3v.7a3.7 3.7 0 0 0 6.2 3h.1ZM33 39.5v-.7c.5-4 1.5-7.8 3-11.4-.4 2.2-.6 4.5-.6 6.7v5.4a1.2 1.2 0 0 1-.3.8l-.1.1a1.2 1.2 0 0 1-2-1Zm15.2 0v-.7c.5-4 1.4-7.8 3-11.4-.4 2.2-.6 4.5-.6 6.7v5.4a1.2 1.2 0 0 1-.3.8l-.1.1a1.2 1.2 0 0 1-2-1Zm15-5.4v5.4a1.2 1.2 0 0 1-.3.8v.1a1.2 1.2 0 0 1-2-1v-.6c.4-4 1.4-7.8 3-11.4-.4 2.2-.6 4.5-.6 6.7ZM38.2 14l-2.7 1.6V10l2.7 4Zm10 0a19 19 0 0 1 15.5 8c-2 3.5-3.4 7.2-4.3 11H53c0-2.8.5-5.6 1.1-8.4l1.3-5.2a1.3 1.3 0 0 0-2.2-1 42.2 42.2 0 0 0-6.7 14.6H38c0-2.8.5-5.6 1.1-8.4l1.4-5.2a1.3 1.3 0 0 0-2.3-1 42.2 42.2 0 0 0-6.7 14.6h-2.3a19 19 0 0 1 19-19ZM30.4 39.7c-.6-1.4-1-2.8-1.1-4.3h1.6l-.4 3.2-.1.6v.5Zm-2.2-15a7.5 7.5 0 0 1-3.2-7.3l1.1-7.2a2.2 2.2 0 0 1 2.2-1.9h2.6a2 2 0 0 1 2 2v7.4c-2 2-3.6 4.4-4.7 7ZM7.6 12.1H10a1.3 1.3 0 0 0 1.2-.7l1.6-3.3a10 10 0 0 1 9.8-5.5l4.9.3A7 7 0 0 1 32.8 6l.2.3c-.7-.3-1.4-.5-2.1-.5h-2.6a4.7 4.7 0 0 0-4.7 4l-1 7.2a10 10 0 0 0 4.8 10.2 21.5 21.5 0 0 0 14.4 26.3v6a1.3 1.3 0 0 0 1.2 1.3v12.6h-5V58.2l-.2-.7-2.6-3.8a1.3 1.3 0 1 0-2 1.4l2.2 3.5v14.8h-5.6L28.2 71l1.8-1.8c.2-.2.4-.5.4-.9v-7.5a1.3 1.3 0 0 0-.4-1l-11.3-10-3.5-7A24.5 24.5 0 0 1 12.7 32v-8.4a1.3 1.3 0 0 0-1-1.2l-6.2-1.8a2.8 2.8 0 0 1-2-2.4l-.2-1.4.7-.2a4.7 4.7 0 0 0 3.6-4.4Zm-2.5 0a2.2 2.2 0 0 1-1.7 2H3l-.3-2h2.4Z" fill="#000"/></svg>