<svg width="76" height="76" fill="none" xmlns="http://www.w3.org/2000/svg"><path d="M74.7 19v38H57v17.7H19V57H1.3V19H19V1.3h38V19h17.7Z" fill="#6B9777"/><path d="M72.1 19v38H54.4v17.7H19V57H1.3V19H19V1.3h35.4V19h17.7Z" fill="#85BC94"/><path d="M20.3 50.6H19a4.9 4.9 0 0 1-4.7-3.7l-1.6-6.4-.9.8a8.4 8.4 0 0 0-2.3 7.1c.4 3 2 5.8 4.4 7.6.8.6 1.8 1 2.9 1h3.4v-6.4Z" fill="#744630"/><path d="m53.2 72.1-1.3 2.6h-33V56c0-2.7.5-5.4 1.4-8l.7-2c1.2-3.6 3.2-6.9 5.9-9.6 2.3-2.3 4.1-5 5.4-8l1.3-3 .6-1.4h-3.7a5 5 0 0 1-4.9-3.8l-.6-2.5-.2-.6a2.5 2.5 0 0 1 2.5-3.2h4.3c.9-2.4 2.5-4.5 4.7-5.8l.6-.4a9.9 9.9 0 0 1 9.5-.3 9.9 9.9 0 0 1 5.5 8.8V71l1.3 1.2Z" fill="#F3AF3E"/><path d="M26 74.7a5.7 5.7 0 0 1-5.8-5.7v-1a5.7 5.7 0 0 1 2.3-4.5 7 7 0 0 0 2.8-5.6v-1a1.3 1.3 0 1 1 2.5 0v1a9.5 9.5 0 0 1-3.8 7.6 3.2 3.2 0 0 0-1.2 2.5v1a3.2 3.2 0 0 0 6.3 0v-.7a3.8 3.8 0 0 1 3.8-3.8 1.3 1.3 0 1 1 0 2.6 1.3 1.3 0 0 0-1.3 1.2v.7a5.7 5.7 0 0 1-5.7 5.7Z" fill="#CD761F"/><path d="m53.2 72.1-1.3 2.6H38.4a8 8 0 0 1-8-8c0-1.4.2-2.8.6-4.2l.2-.7c1-4 3.7-7.3 7.2-9.4.5-.3 1-.8 1.3-1.4l2-4.2h-4.2a3.3 3.3 0 0 1-3.3-3.3v-3H38l.3-1a5.5 5.5 0 0 1 3.9-3.5l2.1-.6v-3.8l3.7 2.8c.9.7 1.6 1.6 2.1 2.6 1.2 2.3 1.8 4.9 1.8 7.5v26.4l1.3 1.2Z" fill="#E08122"/><path d="m44 46.5-1.3 1.2c-.3.3-.6.4-1 .4h-.6l.7-1.3h-4.3a3.3 3.3 0 0 1-2.5-1.1l.4-.1h5.8l1-1a1.3 1.3 0 0 1 1.7 1.9ZM46.8 58.2a1.3 1.3 0 0 0-1.2 1.3v9.1a4 4 0 0 0-1.6-.3H43l.1-.2a5.5 5.5 0 0 0-4.6-8.6H38a1.3 1.3 0 1 0 0 2.5h.4a3 3 0 0 1 2.5 4.7l-1.5 2.2a1.3 1.3 0 0 0 1.1 2H44a1.5 1.5 0 0 1 1.6 1.5v2.3H48V59.5a1.3 1.3 0 0 0-1.3-1.3Z" fill="#CD761F"/><path d="M51.9 16.5V20a3.8 3.8 0 1 1-7.6 0v-6h5l2.6 2.5Z" fill="#744630"/><path d="M40.1 22.4 37.6 25c-.2.3-.6.4-.9.4h-3l.5-1.3h-3.7a5 5 0 0 1-3.2-1.1l.5-.1h8.4l2.1-2.2a1.3 1.3 0 1 1 1.8 1.8ZM29.1 14v2.5a1.3 1.3 0 0 1-1.3 1.2H25l-.2-.6a2.5 2.5 0 0 1 2.5-3.2H29ZM33 37.4a1.3 1.3 0 0 1-1-2c1.5-2 2.7-4.3 3.5-6.7a1.3 1.3 0 0 1 2.4.8 25.9 25.9 0 0 1-4.3 7.7l-.6.2ZM24 55.7a1.3 1.3 0 0 1-1.2-1.3c0-4.4 1.4-8.6 4-12.1a1.3 1.3 0 1 1 2 1.5c-2.2 3-3.5 6.8-3.5 10.6a1.3 1.3 0 0 1-1.3 1.3ZM38 16.5a1.3 1.3 0 1 0 0-2.6 1.3 1.3 0 0 0 0 2.6Z" fill="#D18D28"/><path d="M43 41.8a1.3 1.3 0 1 0 0-2.6 1.3 1.3 0 0 0 0 2.6Z" fill="#CD761F"/><path d="M74.7 17.7H58.2V1.3A1.3 1.3 0 0 0 57 0H19a1.3 1.3 0 0 0-1.3 1.3v16.4H1.3A1.3 1.3 0 0 0 0 19v38a1.3 1.3 0 0 0 1.3 1.2h16.4v16.5a1.3 1.3 0 0 0 1.3 1.2h38a1.3 1.3 0 0 0 1.2-1.2V58.2h16.5a1.3 1.3 0 0 0 1.2-1.2V19a1.3 1.3 0 0 0-1.2-1.3Zm-57 38h-1c-.7 0-1.4-.3-2-.7-2.2-1.6-3.6-4-4-6.7-.3-1.9.2-3.7 1.3-5.2l1 4.1a6.1 6.1 0 0 0 5 4.6l-.3 3.9Zm2.6 17.7V69a5.7 5.7 0 0 0 2 4.4h-2Zm8.8-5v.6a3.2 3.2 0 0 1-6.3 0v-1a3.2 3.2 0 0 1 1.2-2.5 9.5 9.5 0 0 0 3.8-7.6v-1a1.3 1.3 0 0 0-2.5 0v1a7 7 0 0 1-2.8 5.6 5.7 5.7 0 0 0-2.3 4.5V56a23.8 23.8 0 0 1 1.2-7.5l.8-2.1c1.1-3.4 3-6.5 5.5-9l.1-.2c2.4-2.3 4.3-5.1 5.6-8.2l1.6-3.7h1.7a1.3 1.3 0 0 0 .9-.4l2.5-2.5a1.3 1.3 0 1 0-1.8-1.8l-2.1 2.2h-5.7a3.8 3.8 0 0 1-3.7-2.9l-.2-1h1.2a2.5 2.5 0 0 0 2.6-2.4v-1.3h1.2a1.3 1.3 0 0 0 1.2-.9c.8-2.1 2.2-4 4.2-5.1l.5-.4a8.6 8.6 0 0 1 8.3-.3c1.9 1 3.3 2.4 4.1 4.3l-.5-.1h-5.1a1.3 1.3 0 0 0-1.3 1.2V20a5 5 0 0 0 7.6 4.4v11a8.5 8.5 0 0 0-1.8-2L45 30.6a1.3 1.3 0 0 0-2 1v2.8l-1.3.3a6.7 6.7 0 0 0-4.7 4.5h-3a1.3 1.3 0 0 0-1.2 1.3v3a4.6 4.6 0 0 0 4.6 4.6h2.2l-1.2 2.3c-.1.4-.4.7-.8 1a17.4 17.4 0 0 0-7.8 10l-.2.7a16.6 16.6 0 0 0-.6 6.2Zm-3-52V16l.2-.2a1.3 1.3 0 0 1 1-.5h.5v1.3H26Zm24.5.6v3a2.5 2.5 0 1 1-5 0v-4.8h3.2l1.8 1.8Zm-21 56.4 1.2-1.4 1.2 1.4h-2.5Zm21.5 0h-3v-14a1.3 1.3 0 0 0-2.5 0v9.2a4 4 0 0 0-1.6-.3H43l.1-.2a5.5 5.5 0 0 0-4.6-8.6H38a1.3 1.3 0 1 0 0 2.5h.4a3 3 0 0 1 2.5 4.7l-1.5 2.2a1.3 1.3 0 0 0 1.1 2H44a1.5 1.5 0 0 1 1.6 1.5v1h-7.2a6.7 6.7 0 0 1-6.8-6.7c0-1.3.2-2.6.6-3.9l.2-.6c1-3.7 3.4-6.8 6.6-8.7.8-.5 1.4-1.1 1.8-2l2-4 1.1-1a1.3 1.3 0 1 0-1.8-1.8l-.9.9h-3.7a2 2 0 0 1-2-2v-1.8H38a1.3 1.3 0 0 0 1.2-.9l.3-1a4.2 4.2 0 0 1 3-2.7l2.1-.5a1.3 1.3 0 0 0 1-1.3v-1.2l1.6 1.2a6 6 0 0 1 1.8 2.1c1 2.2 1.6 4.6 1.6 7v26.4a1.3 1.3 0 0 0 .4.9l.6.6-.5 1Zm22.3-17.7H57a1.3 1.3 0 0 0-1.3 1.3v16.4h-1.8l.4-.7a1.3 1.3 0 0 0-.2-1.5l-1-.8V16.2a11 11 0 0 0-6-10h-.2a11.1 11.1 0 0 0-10.7.4l-.5.4a12 12 0 0 0-5 5.7h-3.4a3.8 3.8 0 0 0-3.7 4.7l.8 3.1a6.3 6.3 0 0 0 6.1 4.8h1.8L31 28c-1.2 2.8-2.9 5.3-5 7.4l-.1.1c-2.9 2.9-5 6.3-6.2 10l-.7 2.1-.5 1.7a3.6 3.6 0 0 1-3.1-2.7l-1.6-6.4a1.3 1.3 0 0 0-2.1-.6l-.9.8a9.7 9.7 0 0 0-2.7 8.2c.4 2.7 1.6 5.2 3.5 7H2.5V20.3H19a1.3 1.3 0 0 0 1.3-1.2V2.5h35.4V19a1.3 1.3 0 0 0 1.3 1.3h16.4v35.4Z" fill="#000"/><path d="M32.3 37.1A1.3 1.3 0 0 0 34 37c1.7-2.3 3-4.7 3.9-7.4a1.3 1.3 0 0 0-2.4-.8c-.8 2.4-2 4.6-3.5 6.6a1.3 1.3 0 0 0 .3 1.8ZM28.6 42a1.3 1.3 0 0 0-1.8.3c-2.6 3.5-4 7.7-4 12.1a1.3 1.3 0 0 0 2.5 0c0-3.8 1.3-7.5 3.6-10.6a1.3 1.3 0 0 0-.3-1.8ZM38 16.5a1.3 1.3 0 1 0 0-2.6 1.3 1.3 0 0 0 0 2.6ZM43 41.8a1.3 1.3 0 1 0 0-2.6 1.3 1.3 0 0 0 0 2.6Z" fill="#000"/></svg>