<svg width="178" height="87" fill="none" xmlns="http://www.w3.org/2000/svg"><path d="m11 37.9-11-5 11.9-5.5C12.2 11 28 7.4 34.6 8c6.5.6 25.6 12.3 18 36.2-2.7 8.2-2 29.3 28.5 27.3C78.8 76 68.1 94 33 82.5c-9.7-3.2-23.6-18.9-22-44.6Z" fill="#FFBD54"/><path d="M110.8 32.7c1-11.6-5-22.1-8.6-24.5C99 5.9 99 15.7 96 21a37 37 0 0 0-28.4 0c-3-5.4-3-15-6.3-12.8-3.5 2.4-9.5 12.9-8.5 24.5-3.7 5-5.8 11.1-5.8 17.7 0 17.8 15.6 31 34.8 31 19.2 0 34.7-13.2 34.7-31 0-6.6-2-12.6-5.7-17.7Z" fill="#78C0DE"/><path d="M109.1 52.4c1-16 7-18.1 7.8-27.8C118 11 127.3 1.3 131.9 0c4.6-1.2-1.3 12.4 2.8 17 8.6-2.9 14-.4 18.4 4.3 4.3 4.7-1.3 9.1 7.1 8 3.5-.5 7.1-.4 10.1.3l1-.4c2.3-.9 5 .6 6 3.3.3 1 .3 2 .1 3 .1.5.2 1 .1 1.6-.4 8.2-10.5 19.5-16.8 20.3-6.2.8-12.9-.3-13 12.3-.3 16.6-37.2 23.3-46.3 6.3 6.6-4.8 7-11.5 7.7-23.7Z" fill="#000"/><path d="M136.9 22.1c4.3.4 7.7-1.9 11-4.5a19 19 0 0 0-4.4 0c-2.5-4.5 4.7-14.6.8-14.4-3.6.1-12.7 5-17 13.9 3.1 2 5.5 5.3 9.6 5Z" fill="#000"/><path d="M38.1 34.4c-.5-.1-1-.2-1.5 0a4 4 0 0 0-3.3 3l-3.5 12.9L23 38.8a4.1 4.1 0 0 0-4-2c-.5.1-1 .3-1.4.6-1 .6-1.6 1.5-1.9 2.5-.2 1 0 2 .5 3l11.7 19.6.4.6a1 1 0 0 0 .3.2l.1.1.2.2h.1v.3l.6.1.1.1 1.1.3H32l.6-.2h.3l.2-.1 1-.7.2-.3.2-.3.2-.2v-.2h.1l.2-.4.3-.6L41 39.3c.3-1 .2-2-.3-3a4 4 0 0 0-2.6-1.9ZM81.6 34.3c-9.3.1-16.8 8-16.7 17.7.2 9.7 7.8 17.2 17.3 17.1 5 0 9-1.7 12.3-4.8a4 4 0 0 0 1.3-2.8c0-1.4-.6-2.6-1.3-3.3a4.2 4.2 0 0 0-3.2-1.2 5 5 0 0 0-3.5 1.4 9 9 0 0 1-5.7 1.4c-2-.1-4.2-1.1-5.3-2.4-.6-.5-1-1.2-1.4-2l18.6-.3c2.4 0 4.3-1.5 4.6-3.6l.1-1v-.3c-.7-9.4-8-16-17.1-16ZM89.2 47l-14.2.2c1-2 3.2-4 6.7-4.2a10 10 0 0 1 7.5 4ZM138 49.7c2.6.2 5-1.6 5.2-4.1a4.7 4.7 0 0 0-4.2-5.1h-.2l.8-7.6a4.6 4.6 0 0 0-4.2-5.1 4.6 4.6 0 0 0-5.1 4.1l-.8 7.6h-.5a4.6 4.6 0 0 0-1 9.2h.5L127 64.4a8 8 0 0 0 7.2 8.8c2.6.3 4.8-1.5 5-4.1.3-2.2-.9-4.1-2.8-4.9l1.5-14.5h.3Z" fill="#fff"/></svg>