<svg width="22" height="21" fill="none" xmlns="http://www.w3.org/2000/svg"><path d="M14.5 11.1v.1c.8.2 1.3.8 1.3 1.5a.3.3 0 0 1-.6 0c0-.5-.5-.9-1-.9-.6 0-1 .4-1 1 0 .4.4.8 1 .8.9 0 1.6.7 1.6 1.5 0 .7-.5 1.3-1.2 1.5V17a.3.3 0 1 1-.7 0v-.2l-.1-.1c-.7-.2-1.3-.8-1.3-1.5a.3.3 0 0 1 .7 0c0 .5.4 1 1 1 .5 0 1-.5 1-1s-.5-.9-1-.9c-1 0-1.7-.7-1.7-1.5 0-.7.6-1.3 1.3-1.5v-.3a.3.3 0 0 1 .7 0v.2ZM16.5 9.2a5.3 5.3 0 0 1 2.4 7.2.3.3 0 0 1-.5.2.3.3 0 0 1 0-.5 4.7 4.7 0 0 0-2.2-6.4.3.3 0 1 1 .3-.6ZM14.8 9.3a.3.3 0 1 1 0-.7.3.3 0 0 1 0 .7ZM10 11.8a4.7 4.7 0 0 0 2.2 6.4V18a.3.3 0 0 1-.3.6 5.3 5.3 0 0 1-2.4-7.2c.1-.2.3-.3.4-.2.2.1.3.3.2.5ZM13.6 18.6a.3.3 0 0 1 0 .6.3.3 0 1 1 0-.6Z" fill="#fff" stroke="#fff" stroke-width=".2"/><path d="M16 7.2a7 7 0 1 1-6.9 11.5H4a1.8 1.8 0 0 1-1-3.3v-.1a1.8 1.8 0 0 1 0-2.9v-.1a1.8 1.8 0 0 1 0-2.8v-.2a1.8 1.8 0 0 1 1-3.2h1.3v-.2a1.8 1.8 0 0 1 0-2v-.2H2A1.8 1.8 0 0 1 2 .1h10.2a1.8 1.8 0 0 1 1.5 2.8l-.1.2H17a1.8 1.8 0 0 1 0 3.6h-1.3l.1.2.2.3ZM14.8 7v-.2H4.2a1.2 1.2 0 0 0 0 2.3h5a7 7 0 0 1 5.6-2ZM8.6 10v-.2H4.3a1.2 1.2 0 0 0 0 2.4H7.5V12a7 7 0 0 1 1-2.1Zm-1.3 2.9v-.1H4.1a1.2 1.2 0 0 0 0 2.3h3.1a7 7 0 0 1 0-2.2Zm.2 3v-.1H4.2a1.2 1.2 0 0 0 0 2.3h4.4l-.1-.1a7 7 0 0 1-1-2.2ZM18.2 4.8c0-.7-.6-1.2-1.2-1.2H6.8a1.2 1.2 0 0 0 0 2.4H17c.6 0 1.2-.6 1.2-1.2ZM.7 1.9c0 .7.6 1.2 1.2 1.2h10.2a1.2 1.2 0 0 0 0-2.4H1.9C1.3.7.7 1.3.7 2ZM8 14a6.3 6.3 0 1 0 12.6 0A6.3 6.3 0 0 0 8 14Z" fill="#fff" stroke="#fff" stroke-width=".2"/></svg>