<svg width="28" height="27" fill="none" xmlns="http://www.w3.org/2000/svg"><path d="M23.6 17c-2.2-3.2-4.6-6.7-10.1-5.2-2.5.7-4.1 2-5 3.9-.9 1.7-1 3.8-1.2 5.7-.1 2.4 2.3 4 4.5 3 1.8-.8 4.2-2.1 8-2.4l2-.2c2-.5 3-3 1.8-4.7Z" fill="#FBDD7B"/><path d="M21.8 21.8c2-.5 3-3 1.8-4.7-2.2-3.3-4.6-6.8-10.1-5.3l2.9 10.8c2.7-.8 4.5-.6 5.4-.8Z" fill="#FECB3E"/><path d="m16.6 16.4-1.1.3-.3-1a.7.7 0 1 0-1.3.3l.3 1-1.1.3a.7.7 0 0 0 .3 1.3l1.1-.3.3 1.1a.7.7 0 0 0 1.3-.3l-.3-1.1 1.1-.3a.7.7 0 1 0-.3-1.3Z" fill="#FFF8E0"/><path d="m16.1 19-.3-1 1.1-.3a.7.7 0 0 0-.3-1.3l-1.1.3-.3-1a.7.7 0 0 0-.8-.6l1.2 4.8c.4 0 .6-.5.5-.8Z" fill="#FFE799"/><path d="M21.3 6.2a2.5 2.5 0 0 0 1.3 4.8 2.5 2.5 0 0 0 1.7-3c-.3-1.4-1.7-2.1-3-1.8ZM16.4 9c1.5-.5 2.3-2.4 1.8-4.3-.5-1.8-2.1-3-3.6-2.7-1.5.5-2.3 2.3-1.8 4.2.5 2 2.1 3.1 3.6 2.7Z" fill="#FECB3E"/><path d="M9.5 10.8c1.5-.4 2.3-2.3 1.8-4.2C10.8 4.7 9 3.5 7.6 4c-1.5.4-2.3 2.3-1.8 4.2.5 1.9 2.2 3 3.7 2.7ZM4 10.9a2.5 2.5 0 0 0-1.9 3c.4 1.3 1.8 2 3.1 1.7A2.5 2.5 0 0 0 3.9 11Z" fill="#FBDD7B"/></svg>