<svg width="78" height="78" fill="none" xmlns="http://www.w3.org/2000/svg"><path d="M39.6 5.7H26.2a2.3 2.3 0 1 1 0-4.6h13.4a2.3 2.3 0 1 1 0 4.6ZM27.6 51.6h10.6v4.6H27.6v-4.6Z" fill="#716680"/><path d="M26.8 5.7H39V12H26.8V5.7Z" fill="#D6CFC4"/><path d="M34.4 5.7H39V12h-4.6V5.7Z" fill="#C4BEB4"/><path d="M68.9 30.6v32.6h-9.2V31c0-3-2.4-5.5-5.5-5.5h-9.1v-9.1h9.4c8 0 14.4 6.4 14.4 14.3Z" fill="#716680"/><path d="M54.5 16.3H50c7.9 0 14.3 6.4 14.3 14.3v32.6h4.6V30.6c0-7.9-6.5-14.3-14.4-14.3Z" fill="#635870"/><path d="M55.8 76.9H22.2c-5 0-9.1-4.1-9.1-9.1h51.8c0 5-4 9-9 9Z" fill="#716680"/><path d="M60.3 67.8c0 5-4 9-9 9h4.5c5 0 9.1-4 9.1-9h-4.6Z" fill="#635870"/><path d="M42 51.6H23.8a3 3 0 0 1-3-3V15.1a3 3 0 0 1 3-3H42a3 3 0 0 1 3.1 3v33.5a3 3 0 0 1-3 3Z" fill="#E8E1D5"/><path d="M42 12h-4.5a3 3 0 0 1 3 3v33.6a3 3 0 0 1-3 3H42a3 3 0 0 0 3.1-3V15.1a3 3 0 0 0-3-3Z" fill="#D6CFC4"/><path d="M51.2 20.8a6 6 0 1 1-12.2 0 6 6 0 0 1 12.2 0Z" fill="#FFBD54"/><path d="M47.4 20.8a2.3 2.3 0 1 1-4.6 0 2.3 2.3 0 0 1 4.6 0Z" fill="#FF573D"/><path d="M74.6 67.8H3.4a2.3 2.3 0 1 1 0-4.6h71.2a2.3 2.3 0 1 1 0 4.6Z" fill="#E8E1D5"/><path d="M74.6 63.2H70a2.3 2.3 0 1 1 0 4.6h4.6a2.3 2.3 0 1 0 0-4.6Z" fill="#D6CFC4"/><path d="M45.1 24.2a3.4 3.4 0 1 0 0-6.8 3.4 3.4 0 0 0 0 6.8Zm0-4.5a1.1 1.1 0 1 1 0 2.2 1.1 1.1 0 0 1 0-2.2Z" fill="#000"/><path d="M74.6 62H70v-.5a1.1 1.1 0 1 0-2.3 0v.6H61V30.9c0-3.6-3-6.6-6.7-6.6h-2.8a7.2 7.2 0 0 0 .1-6.9h3c7.3 0 13.2 6 13.2 13.2v26a1.1 1.1 0 1 0 2.3 0v-26c0-8.5-7-15.4-15.5-15.4h-4.9c-1-.9-2.3-1.4-3.6-1.6a4.2 4.2 0 0 0-4-2.7h-1.9v-4a3.4 3.4 0 0 0-.5-6.9H26.2a3.4 3.4 0 0 0-.5 6.8v4h-2a4.2 4.2 0 0 0-4.1 4.3v4.4a1.1 1.1 0 0 0 2.3 0V15a2 2 0 0 1 1.9-2H42c.6 0 1 .3 1.4.7a7.2 7.2 0 0 0 .6 14.1v20.7a2 2 0 0 1-2 1.9H23.8a2 2 0 0 1-2-1.9V24.4a1.1 1.1 0 1 0-2.2 0v24.2c0 2.3 1.9 4.2 4.2 4.2h2.6v3.4c0 .6.5 1.2 1.2 1.2h10.6c.7 0 1.2-.6 1.2-1.2v-3.4H42c2.4 0 4.2-1.9 4.2-4.2V27.9c1.2-.1 2.3-.6 3.2-1.3h4.8c2.4 0 4.4 2 4.4 4.3v31.2H3.4a3.4 3.4 0 0 0 0 6.8H12c.6 5.1 5 9.1 10.2 9.1h33.6c5.3 0 9.6-4 10.2-9h8.6a3.4 3.4 0 0 0 0-7ZM25 3.5c0-.6.5-1.1 1.1-1.1h13.4a1.1 1.1 0 0 1 0 2.3H26.2c-.6 0-1.1-.5-1.1-1.2ZM28 11v-4h9.9v4h-10ZM37 55h-8.4v-2.3h8.4V55Zm3-34.3a5 5 0 1 1 5 5 5 5 0 0 1-5-5Zm34.5 45.9H20.7a1.1 1.1 0 1 0 0 2.2h43a8 8 0 0 1-7.9 6.8H22.2a8 8 0 0 1-7.9-6.8H16a1.1 1.1 0 1 0 0-2.2H3.4a1.1 1.1 0 0 1 0-2.3h71.2a1.1 1.1 0 0 1 0 2.3Z" fill="#000"/><path d="M24.7 48.4H41a1.1 1.1 0 1 0 0-2.3H24.7a1.1 1.1 0 1 0 0 2.3ZM24.7 44.1H41a1.1 1.1 0 1 0 0-2.3H24.7a1.1 1.1 0 1 0 0 2.3Z" fill="#000"/></svg>